<svg xmlns="http://www.w3.org/2000/svg" xmlns:xlink="http://www.w3.org/1999/xlink" version="1.1" x="0px" y="0px" viewBox="0 0 130 162.5" style="enable-background:new 0 0 130 130;" xml:space="preserve"><g><path class="st0" d="M111.3085938,71.1289063L65.8408203,0.4589844c-0.0133057-0.020752-0.0383301-0.0274658-0.0531006-0.0466919   C65.6054688,0.168335,65.3282471,0,65,0s-0.6054688,0.1682739-0.7877197,0.4122314   c-0.0147705,0.0192871-0.0397949,0.026001-0.0531006,0.0467529L18.6914063,71.1289063   c-0.1777344,0.2758789-0.2089844,0.621582-0.0830078,0.9248047l16.1833496,38.9174805h-2.5925293   c-4.1503906,0-7.5273438,3.3769531-7.5273438,7.527832V129c0,0.5522461,0.4472656,1,1,1h78.65625c0.5527344,0,1-0.4477539,1-1   v-10.5009766c0-4.1508789-3.3769531-7.527832-7.5273438-7.527832H95.208252l16.1833496-38.9174805   C111.5175781,71.7504883,111.4863281,71.4047852,111.3085938,71.1289063z M65,51.1132813   c4.2753906,0,7.7529297,3.4780273,7.7529297,7.7529297S69.2753906,66.6186523,65,66.6186523   s-7.7529297-3.4775391-7.7529297-7.7524414S60.7246094,51.1132813,65,51.1132813z M97.8007813,112.9711914   c3.0478516,0,5.5273438,2.4799805,5.5273438,5.527832V128h-76.65625v-9.5009766c0-3.0478516,2.4794922-5.527832,5.5273438-5.527832   h4.0917969h57.4179688H97.8007813z M93.0419922,110.9711914H36.9580078L20.6572266,71.7700195L64,4.4024658v44.7619629   c-4.9099121,0.5023804-8.7529297,4.661438-8.7529297,9.7017822c0,5.3774414,4.375,9.7524414,9.7529297,9.7524414   s9.7529297-4.375,9.7529297-9.7524414c0-5.0403442-3.8430176-9.1994019-8.7529297-9.7017822V4.4024658l43.3427734,67.3675537   L93.0419922,110.9711914z"/></g></svg>